<mxfile host="Electron" modified="2024-07-28T03:57:00.870Z" agent="Mozilla/5.0 (Windows NT 10.0; Win64; x64) AppleWebKit/537.36 (KHTML, like Gecko) draw.io/24.6.4 Chrome/124.0.6367.207 Electron/30.0.6 Safari/537.36" etag="ZG72xP93CpLX2SYvFAn3" version="24.6.4" type="device" pages="3">
  <diagram name="打开数据库会话" id="SE85dlE5BvLreO3nksSo">
    <mxGraphModel dx="2238" dy="1069" grid="0" gridSize="10" guides="1" tooltips="1" connect="1" arrows="1" fold="1" page="0" pageScale="1" pageWidth="827" pageHeight="1169" math="0" shadow="0">
      <root>
        <mxCell id="0" />
        <mxCell id="1" parent="0" />
        <mxCell id="FTAhXeVRQCJLs0EyQR1D-2" value="&lt;font size=&quot;1&quot; style=&quot;&quot;&gt;&lt;b style=&quot;font-size: 18px;&quot;&gt;SqlSessionFactoryBuilder&lt;/b&gt;&lt;/font&gt;" style="rounded=0;whiteSpace=wrap;html=1;verticalAlign=top;fillColor=#dae8fc;strokeColor=#6c8ebf;" vertex="1" parent="1">
          <mxGeometry x="100" y="362" width="253" height="133" as="geometry" />
        </mxCell>
        <mxCell id="FTAhXeVRQCJLs0EyQR1D-5" value="" style="edgeStyle=orthogonalEdgeStyle;rounded=0;orthogonalLoop=1;jettySize=auto;html=1;" edge="1" parent="1" source="FTAhXeVRQCJLs0EyQR1D-1" target="FTAhXeVRQCJLs0EyQR1D-4">
          <mxGeometry relative="1" as="geometry" />
        </mxCell>
        <mxCell id="FTAhXeVRQCJLs0EyQR1D-1" value="&lt;div style=&quot;&quot;&gt;&lt;font style=&quot;font-size: 12px;&quot; face=&quot;MesloLGS NF&quot;&gt;build()&lt;br&gt;&lt;/font&gt;&lt;/div&gt;&lt;font style=&quot;font-size: 12px;&quot; face=&quot;YKzPa8apz-2203XDDcGV&quot;&gt;根据输入流读取&lt;/font&gt;&lt;div style=&quot;&quot;&gt;&lt;font style=&quot;font-size: 12px;&quot; face=&quot;YKzPa8apz-2203XDDcGV&quot;&gt;Mybatis配置文件&lt;/font&gt;&lt;/div&gt;" style="rounded=0;whiteSpace=wrap;html=1;fillColor=#d5e8d4;strokeColor=#82b366;" vertex="1" parent="1">
          <mxGeometry x="162" y="403" width="121" height="60" as="geometry" />
        </mxCell>
        <mxCell id="FTAhXeVRQCJLs0EyQR1D-4" value="&lt;font style=&quot;font-size: 18px;&quot; face=&quot;MesloLGS NF&quot;&gt;&lt;b&gt;DefaultSqlSessionFactory&lt;/b&gt;&lt;/font&gt;" style="whiteSpace=wrap;html=1;rounded=0;verticalAlign=top;fillColor=#ffe6cc;strokeColor=#d79b00;" vertex="1" parent="1">
          <mxGeometry x="408" y="344" width="280" height="178" as="geometry" />
        </mxCell>
        <mxCell id="FTAhXeVRQCJLs0EyQR1D-7" value="" style="endArrow=block;dashed=1;endFill=0;endSize=12;html=1;rounded=0;exitX=0.5;exitY=0;exitDx=0;exitDy=0;entryX=0.5;entryY=1;entryDx=0;entryDy=0;" edge="1" parent="1" source="FTAhXeVRQCJLs0EyQR1D-4" target="FTAhXeVRQCJLs0EyQR1D-8">
          <mxGeometry width="160" relative="1" as="geometry">
            <mxPoint x="548" y="344" as="sourcePoint" />
            <mxPoint x="546" y="266" as="targetPoint" />
          </mxGeometry>
        </mxCell>
        <mxCell id="FTAhXeVRQCJLs0EyQR1D-8" value="&lt;font face=&quot;MesloLGS NF&quot;&gt;SqlSessionFactory&lt;/font&gt;" style="html=1;whiteSpace=wrap;fillColor=#f5f5f5;fontColor=#333333;strokeColor=#666666;" vertex="1" parent="1">
          <mxGeometry x="479" y="254" width="138" height="58" as="geometry" />
        </mxCell>
        <mxCell id="FTAhXeVRQCJLs0EyQR1D-12" value="" style="edgeStyle=orthogonalEdgeStyle;rounded=0;orthogonalLoop=1;jettySize=auto;html=1;" edge="1" parent="1" source="FTAhXeVRQCJLs0EyQR1D-10" target="FTAhXeVRQCJLs0EyQR1D-11">
          <mxGeometry relative="1" as="geometry" />
        </mxCell>
        <mxCell id="FTAhXeVRQCJLs0EyQR1D-10" value="&lt;font face=&quot;MesloLGS NF&quot;&gt;openSession()&lt;/font&gt;&lt;div&gt;&lt;font face=&quot;MesloLGS NF&quot;&gt;打开会话&lt;/font&gt;&lt;/div&gt;" style="html=1;whiteSpace=wrap;fillColor=#1ba1e2;fontColor=#ffffff;strokeColor=#006EAF;" vertex="1" parent="1">
          <mxGeometry x="486" y="382" width="138" height="45" as="geometry" />
        </mxCell>
        <mxCell id="FTAhXeVRQCJLs0EyQR1D-16" style="edgeStyle=orthogonalEdgeStyle;rounded=0;orthogonalLoop=1;jettySize=auto;html=1;entryX=0;entryY=0.5;entryDx=0;entryDy=0;" edge="1" parent="1" source="FTAhXeVRQCJLs0EyQR1D-11" target="FTAhXeVRQCJLs0EyQR1D-13">
          <mxGeometry relative="1" as="geometry" />
        </mxCell>
        <mxCell id="FTAhXeVRQCJLs0EyQR1D-11" value="openSessionFromDataSource()" style="whiteSpace=wrap;html=1;fillColor=#1ba1e2;fontColor=#ffffff;strokeColor=#006EAF;" vertex="1" parent="1">
          <mxGeometry x="457" y="448" width="196" height="50" as="geometry" />
        </mxCell>
        <mxCell id="FTAhXeVRQCJLs0EyQR1D-13" value="&lt;font face=&quot;MesloLGS NF&quot;&gt;&lt;span style=&quot;font-size: 18px;&quot;&gt;&lt;b&gt;DefaultSqlSession&lt;/b&gt;&lt;/span&gt;&lt;/font&gt;" style="whiteSpace=wrap;html=1;rounded=0;verticalAlign=top;fillColor=#ffe6cc;strokeColor=#d79b00;" vertex="1" parent="1">
          <mxGeometry x="737" y="344" width="280" height="178" as="geometry" />
        </mxCell>
        <mxCell id="FTAhXeVRQCJLs0EyQR1D-14" value="&lt;font face=&quot;MesloLGS NF&quot;&gt;SqlSession&lt;/font&gt;" style="html=1;whiteSpace=wrap;fillColor=#f5f5f5;fontColor=#333333;strokeColor=#666666;" vertex="1" parent="1">
          <mxGeometry x="808" y="254" width="138" height="58" as="geometry" />
        </mxCell>
        <mxCell id="FTAhXeVRQCJLs0EyQR1D-15" value="" style="endArrow=block;dashed=1;endFill=0;endSize=12;html=1;rounded=0;exitX=0.5;exitY=0;exitDx=0;exitDy=0;entryX=0.5;entryY=1;entryDx=0;entryDy=0;" edge="1" parent="1" source="FTAhXeVRQCJLs0EyQR1D-13" target="FTAhXeVRQCJLs0EyQR1D-14">
          <mxGeometry width="160" relative="1" as="geometry">
            <mxPoint x="868.5" y="396" as="sourcePoint" />
            <mxPoint x="869" y="339" as="targetPoint" />
          </mxGeometry>
        </mxCell>
        <mxCell id="FTAhXeVRQCJLs0EyQR1D-17" value="&lt;font face=&quot;MesloLGS NF&quot;&gt;getMapper()&lt;/font&gt;&lt;br&gt;&lt;div&gt;&lt;font face=&quot;MesloLGS NF&quot;&gt;获取数据库数据&lt;/font&gt;&lt;/div&gt;&lt;div&gt;&lt;font face=&quot;MesloLGS NF&quot;&gt;转换为对应的&lt;/font&gt;&lt;/div&gt;&lt;div&gt;&lt;font face=&quot;MesloLGS NF&quot;&gt;Mapper/DAO&lt;/font&gt;&lt;/div&gt;" style="html=1;whiteSpace=wrap;fillColor=#1ba1e2;fontColor=#ffffff;strokeColor=#006EAF;" vertex="1" parent="1">
          <mxGeometry x="808" y="443" width="138" height="64" as="geometry" />
        </mxCell>
        <mxCell id="R3ihF3cFXYVkp5bpyiOf-1" value="&lt;font face=&quot;MesloLGS NF&quot;&gt;&lt;span style=&quot;font-size: 18px;&quot;&gt;&lt;b&gt;SqlSessionTemplate&lt;/b&gt;&lt;/span&gt;&lt;/font&gt;" style="whiteSpace=wrap;html=1;rounded=0;verticalAlign=top;fillColor=#ffe6cc;strokeColor=#d79b00;" vertex="1" parent="1">
          <mxGeometry x="775" y="836.5" width="332" height="377.5" as="geometry" />
        </mxCell>
        <mxCell id="R3ihF3cFXYVkp5bpyiOf-12" value="" style="edgeStyle=orthogonalEdgeStyle;rounded=0;orthogonalLoop=1;jettySize=auto;html=1;" edge="1" parent="1" source="R3ihF3cFXYVkp5bpyiOf-6" target="R3ihF3cFXYVkp5bpyiOf-11">
          <mxGeometry relative="1" as="geometry" />
        </mxCell>
        <mxCell id="R3ihF3cFXYVkp5bpyiOf-6" value="&lt;font face=&quot;MesloLGS NF&quot;&gt;SqlSessionTemplate(SqlSessionFactory)&lt;/font&gt;&lt;div&gt;&lt;font face=&quot;MesloLGS NF&quot;&gt;构造函数&lt;/font&gt;&lt;/div&gt;" style="html=1;whiteSpace=wrap;fillColor=#1ba1e2;fontColor=#ffffff;strokeColor=#006EAF;" vertex="1" parent="1">
          <mxGeometry x="799" y="883.5" width="272" height="48" as="geometry" />
        </mxCell>
        <mxCell id="R3ihF3cFXYVkp5bpyiOf-14" value="" style="edgeStyle=orthogonalEdgeStyle;rounded=0;orthogonalLoop=1;jettySize=auto;html=1;" edge="1" parent="1" source="R3ihF3cFXYVkp5bpyiOf-11" target="R3ihF3cFXYVkp5bpyiOf-13">
          <mxGeometry relative="1" as="geometry" />
        </mxCell>
        <mxCell id="R3ihF3cFXYVkp5bpyiOf-11" value="创建SqlSessionProxy" style="whiteSpace=wrap;html=1;fillColor=#1ba1e2;strokeColor=#006EAF;fontColor=#ffffff;" vertex="1" parent="1">
          <mxGeometry x="866" y="974" width="138" height="60" as="geometry" />
        </mxCell>
        <mxCell id="R3ihF3cFXYVkp5bpyiOf-3" value="" style="endArrow=block;dashed=1;endFill=0;endSize=12;html=1;rounded=0;exitX=0.5;exitY=0;exitDx=0;exitDy=0;entryX=0.5;entryY=1;entryDx=0;entryDy=0;edgeStyle=orthogonalEdgeStyle;" edge="1" parent="1" source="R3ihF3cFXYVkp5bpyiOf-1" target="WVnlGjUGyBzo1f09ywRN-15">
          <mxGeometry width="160" relative="1" as="geometry">
            <mxPoint x="887" y="354" as="sourcePoint" />
            <mxPoint x="887" y="322" as="targetPoint" />
            <Array as="points">
              <mxPoint x="941" y="791" />
              <mxPoint x="941" y="791" />
            </Array>
          </mxGeometry>
        </mxCell>
        <mxCell id="R3ihF3cFXYVkp5bpyiOf-13" value="&lt;font style=&quot;font-size: 15px;&quot;&gt;private class SqlSessionInterceptor&lt;/font&gt;&lt;div&gt;&lt;br&gt;&lt;/div&gt;&lt;div&gt;动态代理类（取名拦截器）&lt;/div&gt;&lt;div&gt;&lt;br&gt;&lt;/div&gt;&lt;div&gt;会拦截SqlSession对象的方法调用&lt;/div&gt;" style="whiteSpace=wrap;html=1;fillColor=#1ba1e2;strokeColor=#006EAF;fontColor=#ffffff;verticalAlign=top;" vertex="1" parent="1">
          <mxGeometry x="816" y="1078" width="238" height="101" as="geometry" />
        </mxCell>
        <mxCell id="ojAnquHvE9MYXqrxkCUj-1" value="" style="group;verticalAlign=middle;" vertex="1" connectable="0" parent="1">
          <mxGeometry x="1156" y="1091.5" width="180" height="74" as="geometry" />
        </mxCell>
        <mxCell id="ojAnquHvE9MYXqrxkCUj-2" value="&lt;font face=&quot;MesloLGS NF&quot;&gt;InvocationHandler&lt;/font&gt;&lt;div&gt;&lt;font face=&quot;MesloLGS NF&quot;&gt;&lt;br&gt;&lt;/font&gt;&lt;/div&gt;&lt;div&gt;&lt;font face=&quot;MesloLGS NF&quot;&gt;JDK实现动态代理的接口&lt;/font&gt;&lt;/div&gt;" style="html=1;whiteSpace=wrap;fillColor=#1ba1e2;fontColor=#ffffff;strokeColor=#006EAF;verticalAlign=top;align=center;" vertex="1" parent="ojAnquHvE9MYXqrxkCUj-1">
          <mxGeometry width="180" height="74" as="geometry" />
        </mxCell>
        <mxCell id="ojAnquHvE9MYXqrxkCUj-3" value="" style="endArrow=block;dashed=1;endFill=0;endSize=12;html=1;rounded=0;exitX=1;exitY=0.5;exitDx=0;exitDy=0;edgeStyle=orthogonalEdgeStyle;entryX=0;entryY=0.5;entryDx=0;entryDy=0;" edge="1" parent="1" source="R3ihF3cFXYVkp5bpyiOf-13" target="ojAnquHvE9MYXqrxkCUj-2">
          <mxGeometry width="160" relative="1" as="geometry">
            <mxPoint x="887" y="631" as="sourcePoint" />
            <mxPoint x="1161" y="837" as="targetPoint" />
            <Array as="points" />
          </mxGeometry>
        </mxCell>
        <mxCell id="ojAnquHvE9MYXqrxkCUj-5" style="edgeStyle=orthogonalEdgeStyle;rounded=0;orthogonalLoop=1;jettySize=auto;html=1;entryX=0;entryY=0.5;entryDx=0;entryDy=0;strokeColor=#0099FF;exitX=1.002;exitY=0.373;exitDx=0;exitDy=0;exitPerimeter=0;" edge="1" parent="1" source="WVnlGjUGyBzo1f09ywRN-8" target="R3ihF3cFXYVkp5bpyiOf-6">
          <mxGeometry relative="1" as="geometry">
            <mxPoint x="699" y="903" as="sourcePoint" />
          </mxGeometry>
        </mxCell>
        <mxCell id="WVnlGjUGyBzo1f09ywRN-18" value="构造" style="edgeLabel;html=1;align=center;verticalAlign=middle;resizable=0;points=[];labelBorderColor=default;fontFamily=MesloLGS NF;fontSize=16;" vertex="1" connectable="0" parent="ojAnquHvE9MYXqrxkCUj-5">
          <mxGeometry x="-0.4712" y="2" relative="1" as="geometry">
            <mxPoint as="offset" />
          </mxGeometry>
        </mxCell>
        <mxCell id="WVnlGjUGyBzo1f09ywRN-2" value="&lt;span style=&quot;font-family: &amp;quot;MesloLGS NF&amp;quot;; font-size: 15px; text-wrap: nowrap;&quot;&gt;单独使用MyBatis&lt;/span&gt;" style="text;html=1;align=center;verticalAlign=middle;whiteSpace=wrap;rounded=0;fontStyle=1" vertex="1" parent="1">
          <mxGeometry x="-96" y="408" width="137" height="40" as="geometry" />
        </mxCell>
        <mxCell id="WVnlGjUGyBzo1f09ywRN-3" value="&lt;font size=&quot;1&quot; style=&quot;&quot;&gt;&lt;b style=&quot;font-size: 18px;&quot;&gt;SqlSessionFactoryBuilder&lt;/b&gt;&lt;/font&gt;" style="rounded=0;whiteSpace=wrap;html=1;verticalAlign=top;fillColor=#dae8fc;strokeColor=#6c8ebf;" vertex="1" parent="1">
          <mxGeometry x="91" y="836.5" width="253" height="133" as="geometry" />
        </mxCell>
        <mxCell id="WVnlGjUGyBzo1f09ywRN-5" value="&lt;div style=&quot;&quot;&gt;&lt;font style=&quot;font-size: 12px;&quot; face=&quot;MesloLGS NF&quot;&gt;build()&lt;br&gt;&lt;/font&gt;&lt;/div&gt;&lt;font style=&quot;font-size: 12px;&quot; face=&quot;YKzPa8apz-2203XDDcGV&quot;&gt;根据输入流读取&lt;/font&gt;&lt;div style=&quot;&quot;&gt;&lt;font style=&quot;font-size: 12px;&quot; face=&quot;YKzPa8apz-2203XDDcGV&quot;&gt;Mybatis配置文件&lt;/font&gt;&lt;/div&gt;" style="rounded=0;whiteSpace=wrap;html=1;fillColor=#d5e8d4;strokeColor=#82b366;" vertex="1" parent="1">
          <mxGeometry x="153" y="877.5" width="121" height="60" as="geometry" />
        </mxCell>
        <mxCell id="WVnlGjUGyBzo1f09ywRN-6" value="&lt;span style=&quot;font-family: &amp;quot;MesloLGS NF&amp;quot;; font-size: 15px; text-wrap: nowrap;&quot;&gt;Spring整合MyBatis&lt;/span&gt;&lt;div&gt;&lt;span style=&quot;font-family: &amp;quot;MesloLGS NF&amp;quot;; font-size: 15px; text-wrap: nowrap;&quot;&gt;(使用SqlSessionTemplate)&lt;/span&gt;&lt;/div&gt;" style="text;html=1;align=center;verticalAlign=middle;whiteSpace=wrap;rounded=0;fontStyle=1" vertex="1" parent="1">
          <mxGeometry x="119.5" y="768" width="206" height="59.5" as="geometry" />
        </mxCell>
        <mxCell id="WVnlGjUGyBzo1f09ywRN-8" value="&lt;font style=&quot;font-size: 18px;&quot; face=&quot;MesloLGS NF&quot;&gt;&lt;b&gt;DefaultSqlSessionFactory&lt;/b&gt;&lt;/font&gt;" style="whiteSpace=wrap;html=1;rounded=0;verticalAlign=top;fillColor=#ffe6cc;strokeColor=#d79b00;" vertex="1" parent="1">
          <mxGeometry x="382" y="882" width="280" height="68" as="geometry" />
        </mxCell>
        <mxCell id="WVnlGjUGyBzo1f09ywRN-9" value="" style="endArrow=block;dashed=1;endFill=0;endSize=12;html=1;rounded=0;exitX=0.5;exitY=0;exitDx=0;exitDy=0;entryX=0.5;entryY=1;entryDx=0;entryDy=0;" edge="1" parent="1" source="WVnlGjUGyBzo1f09ywRN-8" target="WVnlGjUGyBzo1f09ywRN-10">
          <mxGeometry width="160" relative="1" as="geometry">
            <mxPoint x="555" y="836" as="sourcePoint" />
            <mxPoint x="553" y="758" as="targetPoint" />
          </mxGeometry>
        </mxCell>
        <mxCell id="WVnlGjUGyBzo1f09ywRN-10" value="&lt;font face=&quot;MesloLGS NF&quot;&gt;SqlSessionFactory&lt;/font&gt;" style="html=1;whiteSpace=wrap;fillColor=#f5f5f5;fontColor=#333333;strokeColor=#666666;" vertex="1" parent="1">
          <mxGeometry x="453" y="774" width="138" height="58" as="geometry" />
        </mxCell>
        <mxCell id="WVnlGjUGyBzo1f09ywRN-14" style="edgeStyle=orthogonalEdgeStyle;rounded=0;orthogonalLoop=1;jettySize=auto;html=1;entryX=0.005;entryY=0.402;entryDx=0;entryDy=0;entryPerimeter=0;" edge="1" parent="1" source="WVnlGjUGyBzo1f09ywRN-5" target="WVnlGjUGyBzo1f09ywRN-8">
          <mxGeometry relative="1" as="geometry" />
        </mxCell>
        <mxCell id="WVnlGjUGyBzo1f09ywRN-16" value="构造" style="edgeLabel;html=1;align=center;verticalAlign=middle;resizable=0;points=[];fontFamily=MesloLGS NF;fontSize=16;labelBackgroundColor=default;labelBorderColor=default;" vertex="1" connectable="0" parent="WVnlGjUGyBzo1f09ywRN-14">
          <mxGeometry x="0.3485" y="4" relative="1" as="geometry">
            <mxPoint x="-36" y="-1" as="offset" />
          </mxGeometry>
        </mxCell>
        <mxCell id="WVnlGjUGyBzo1f09ywRN-15" value="&lt;font face=&quot;MesloLGS NF&quot;&gt;SqlSession&lt;/font&gt;" style="html=1;whiteSpace=wrap;fillColor=#f5f5f5;fontColor=#333333;strokeColor=#666666;" vertex="1" parent="1">
          <mxGeometry x="872" y="718" width="138" height="58" as="geometry" />
        </mxCell>
        <mxCell id="TrPgGx1sC5sPbFkqmhlN-1" style="edgeStyle=orthogonalEdgeStyle;rounded=0;orthogonalLoop=1;jettySize=auto;html=1;entryX=0.5;entryY=1;entryDx=0;entryDy=0;" edge="1" parent="1" source="b9k1HiIs25PpviOs9O5--1" target="WVnlGjUGyBzo1f09ywRN-8">
          <mxGeometry relative="1" as="geometry">
            <Array as="points">
              <mxPoint x="522" y="1168" />
            </Array>
          </mxGeometry>
        </mxCell>
        <mxCell id="TrPgGx1sC5sPbFkqmhlN-2" value="构造" style="edgeLabel;html=1;align=center;verticalAlign=middle;resizable=0;points=[];fontSize=16;" vertex="1" connectable="0" parent="TrPgGx1sC5sPbFkqmhlN-1">
          <mxGeometry x="-0.5738" y="1" relative="1" as="geometry">
            <mxPoint as="offset" />
          </mxGeometry>
        </mxCell>
        <mxCell id="b9k1HiIs25PpviOs9O5--1" value="&lt;span style=&quot;font-size: 18px;&quot;&gt;&lt;b&gt;SqlSessionFactoryBean&lt;/b&gt;&lt;/span&gt;&lt;div&gt;&lt;span style=&quot;font-size: 18px;&quot;&gt;&lt;b&gt;&lt;br&gt;&lt;/b&gt;&lt;/span&gt;&lt;/div&gt;&lt;div&gt;&lt;span style=&quot;font-size: 18px;&quot;&gt;&lt;b&gt;提供SqlSessionFactory&lt;/b&gt;&lt;/span&gt;&lt;/div&gt;" style="rounded=0;whiteSpace=wrap;html=1;verticalAlign=top;fillColor=#dae8fc;strokeColor=#6c8ebf;" vertex="1" parent="1">
          <mxGeometry x="100" y="1125" width="253" height="86" as="geometry" />
        </mxCell>
        <mxCell id="b9k1HiIs25PpviOs9O5--3" value="" style="endArrow=block;dashed=1;endFill=0;endSize=12;html=1;rounded=0;exitX=0.5;exitY=0;exitDx=0;exitDy=0;entryX=0.5;entryY=1;entryDx=0;entryDy=0;" edge="1" parent="1" target="b9k1HiIs25PpviOs9O5--4" source="b9k1HiIs25PpviOs9O5--1">
          <mxGeometry width="160" relative="1" as="geometry">
            <mxPoint x="238" y="1050" as="sourcePoint" />
            <mxPoint x="269" y="926" as="targetPoint" />
          </mxGeometry>
        </mxCell>
        <mxCell id="b9k1HiIs25PpviOs9O5--4" value="&lt;font face=&quot;MesloLGS NF&quot;&gt;FactoryBean&lt;/font&gt;" style="html=1;whiteSpace=wrap;fillColor=#f5f5f5;fontColor=#333333;strokeColor=#666666;" vertex="1" parent="1">
          <mxGeometry x="157.5" y="1015" width="138" height="58" as="geometry" />
        </mxCell>
        <mxCell id="b9k1HiIs25PpviOs9O5--5" value="&lt;span style=&quot;font-family: &amp;quot;MesloLGS NF&amp;quot;; font-size: 15px; text-wrap: nowrap;&quot;&gt;Spring整合MyBatis&lt;/span&gt;&lt;div&gt;&lt;font face=&quot;MesloLGS NF&quot;&gt;&lt;span style=&quot;font-size: 15px; text-wrap: nowrap;&quot;&gt;(使用SqlSessionFactoryBean)&lt;/span&gt;&lt;/font&gt;&lt;/div&gt;" style="text;html=1;align=center;verticalAlign=middle;whiteSpace=wrap;rounded=0;fontStyle=1" vertex="1" parent="1">
          <mxGeometry x="100" y="1218" width="242" height="59.5" as="geometry" />
        </mxCell>
      </root>
    </mxGraphModel>
  </diagram>
  <diagram id="dr7GPXN-3Q7ze1YrKtO8" name="数据源">
    <mxGraphModel dx="1962" dy="909" grid="0" gridSize="10" guides="1" tooltips="1" connect="1" arrows="1" fold="1" page="0" pageScale="1" pageWidth="827" pageHeight="1169" math="0" shadow="0">
      <root>
        <mxCell id="0" />
        <mxCell id="1" parent="0" />
        <mxCell id="92cY1rSrwsUC9bktOv2z-2" value="«interface»&lt;br&gt;&lt;b&gt;DataSource&lt;/b&gt;" style="html=1;whiteSpace=wrap;fontFamily=MesloLGS NF;fillColor=#0050ef;fontColor=#ffffff;strokeColor=#001DBC;" vertex="1" parent="1">
          <mxGeometry x="126" y="118" width="110" height="50" as="geometry" />
        </mxCell>
        <mxCell id="92cY1rSrwsUC9bktOv2z-3" value="" style="endArrow=block;dashed=1;endFill=0;endSize=12;html=1;rounded=0;edgeStyle=orthogonalEdgeStyle;entryX=0.5;entryY=1;entryDx=0;entryDy=0;" edge="1" parent="1" source="92cY1rSrwsUC9bktOv2z-4" target="92cY1rSrwsUC9bktOv2z-2">
          <mxGeometry width="160" relative="1" as="geometry">
            <mxPoint x="115" y="238" as="sourcePoint" />
            <mxPoint x="42" y="149" as="targetPoint" />
          </mxGeometry>
        </mxCell>
        <mxCell id="92cY1rSrwsUC9bktOv2z-4" value="&lt;font face=&quot;MesloLGS NF&quot;&gt;UnpooledDataSource&lt;/font&gt;" style="html=1;whiteSpace=wrap;fillColor=#1ba1e2;fontColor=#ffffff;strokeColor=#006EAF;" vertex="1" parent="1">
          <mxGeometry x="17" y="227" width="140" height="53" as="geometry" />
        </mxCell>
        <mxCell id="92cY1rSrwsUC9bktOv2z-5" value="&lt;font face=&quot;MesloLGS NF&quot;&gt;PooledDataSource&lt;/font&gt;" style="html=1;whiteSpace=wrap;fillColor=#1ba1e2;fontColor=#ffffff;strokeColor=#006EAF;" vertex="1" parent="1">
          <mxGeometry x="202" y="227" width="140" height="53" as="geometry" />
        </mxCell>
        <mxCell id="92cY1rSrwsUC9bktOv2z-7" value="" style="endArrow=block;dashed=1;endFill=0;endSize=12;html=1;rounded=0;edgeStyle=orthogonalEdgeStyle;exitX=0.5;exitY=0;exitDx=0;exitDy=0;" edge="1" parent="1" source="92cY1rSrwsUC9bktOv2z-5" target="92cY1rSrwsUC9bktOv2z-2">
          <mxGeometry width="160" relative="1" as="geometry">
            <mxPoint x="272" y="374" as="sourcePoint" />
            <mxPoint x="97" y="237" as="targetPoint" />
          </mxGeometry>
        </mxCell>
        <mxCell id="92cY1rSrwsUC9bktOv2z-15" value="" style="group" vertex="1" connectable="0" parent="1">
          <mxGeometry x="-16" y="406" width="418" height="216" as="geometry" />
        </mxCell>
        <mxCell id="92cY1rSrwsUC9bktOv2z-14" value="&lt;font face=&quot;MesloLGS NF&quot;&gt;DriverManager&lt;/font&gt;" style="html=1;whiteSpace=wrap;fillColor=#dae8fc;strokeColor=#6c8ebf;verticalAlign=top;" vertex="1" parent="92cY1rSrwsUC9bktOv2z-15">
          <mxGeometry x="238" width="180" height="216" as="geometry" />
        </mxCell>
        <mxCell id="92cY1rSrwsUC9bktOv2z-8" value="&lt;font face=&quot;MesloLGS NF&quot;&gt;UnpooledDataSource&lt;/font&gt;" style="html=1;whiteSpace=wrap;fillColor=#1ba1e2;fontColor=#ffffff;strokeColor=#006EAF;verticalAlign=top;" vertex="1" parent="92cY1rSrwsUC9bktOv2z-15">
          <mxGeometry width="180" height="216" as="geometry" />
        </mxCell>
        <mxCell id="92cY1rSrwsUC9bktOv2z-11" value="" style="edgeStyle=orthogonalEdgeStyle;rounded=0;orthogonalLoop=1;jettySize=auto;html=1;" edge="1" parent="92cY1rSrwsUC9bktOv2z-15" source="92cY1rSrwsUC9bktOv2z-9" target="92cY1rSrwsUC9bktOv2z-10">
          <mxGeometry relative="1" as="geometry" />
        </mxCell>
        <mxCell id="92cY1rSrwsUC9bktOv2z-9" value="&lt;font face=&quot;MesloLGS NF&quot;&gt;getConnection&lt;/font&gt;" style="rounded=1;whiteSpace=wrap;html=1;" vertex="1" parent="92cY1rSrwsUC9bktOv2z-15">
          <mxGeometry x="33" y="45" width="120" height="60" as="geometry" />
        </mxCell>
        <mxCell id="92cY1rSrwsUC9bktOv2z-13" value="" style="edgeStyle=orthogonalEdgeStyle;rounded=0;orthogonalLoop=1;jettySize=auto;html=1;" edge="1" parent="92cY1rSrwsUC9bktOv2z-15" source="92cY1rSrwsUC9bktOv2z-10" target="92cY1rSrwsUC9bktOv2z-12">
          <mxGeometry relative="1" as="geometry">
            <Array as="points">
              <mxPoint x="212" y="170" />
              <mxPoint x="212" y="75" />
            </Array>
          </mxGeometry>
        </mxCell>
        <mxCell id="92cY1rSrwsUC9bktOv2z-10" value="&lt;font face=&quot;MesloLGS NF&quot;&gt;doGetConnection&lt;/font&gt;" style="whiteSpace=wrap;html=1;rounded=1;" vertex="1" parent="92cY1rSrwsUC9bktOv2z-15">
          <mxGeometry x="33" y="140" width="120" height="60" as="geometry" />
        </mxCell>
        <mxCell id="92cY1rSrwsUC9bktOv2z-12" value="&lt;font face=&quot;MesloLGS NF&quot;&gt;getConnection&lt;/font&gt;" style="whiteSpace=wrap;html=1;rounded=1;" vertex="1" parent="92cY1rSrwsUC9bktOv2z-15">
          <mxGeometry x="272" y="45" width="120" height="60" as="geometry" />
        </mxCell>
        <mxCell id="92cY1rSrwsUC9bktOv2z-16" value="&lt;font face=&quot;MesloLGS NF&quot;&gt;PooledDataSource&lt;/font&gt;" style="html=1;whiteSpace=wrap;fillColor=#1ba1e2;fontColor=#ffffff;strokeColor=#006EAF;verticalAlign=top;" vertex="1" parent="1">
          <mxGeometry x="-16" y="698" width="180" height="216" as="geometry" />
        </mxCell>
        <mxCell id="92cY1rSrwsUC9bktOv2z-17" value="" style="edgeStyle=orthogonalEdgeStyle;rounded=0;orthogonalLoop=1;jettySize=auto;html=1;" edge="1" parent="1" source="92cY1rSrwsUC9bktOv2z-18" target="92cY1rSrwsUC9bktOv2z-19">
          <mxGeometry relative="1" as="geometry" />
        </mxCell>
        <mxCell id="92cY1rSrwsUC9bktOv2z-18" value="&lt;font face=&quot;MesloLGS NF&quot;&gt;getConnection&lt;/font&gt;" style="rounded=1;whiteSpace=wrap;html=1;" vertex="1" parent="1">
          <mxGeometry x="17" y="743" width="120" height="60" as="geometry" />
        </mxCell>
        <mxCell id="92cY1rSrwsUC9bktOv2z-35" style="edgeStyle=orthogonalEdgeStyle;rounded=0;orthogonalLoop=1;jettySize=auto;html=1;" edge="1" parent="1" source="92cY1rSrwsUC9bktOv2z-19" target="92cY1rSrwsUC9bktOv2z-34">
          <mxGeometry relative="1" as="geometry" />
        </mxCell>
        <mxCell id="92cY1rSrwsUC9bktOv2z-19" value="&lt;font face=&quot;MesloLGS NF&quot;&gt;popConnection&lt;/font&gt;" style="whiteSpace=wrap;html=1;rounded=1;" vertex="1" parent="1">
          <mxGeometry x="17" y="838" width="120" height="60" as="geometry" />
        </mxCell>
        <mxCell id="92cY1rSrwsUC9bktOv2z-32" value="" style="group;fillColor=#dae8fc;strokeColor=#6c8ebf;" vertex="1" connectable="0" parent="1">
          <mxGeometry x="265" y="692" width="259" height="216" as="geometry" />
        </mxCell>
        <mxCell id="92cY1rSrwsUC9bktOv2z-26" value="&lt;font face=&quot;MesloLGS NF&quot;&gt;PoolState&lt;/font&gt;" style="html=1;whiteSpace=wrap;fillColor=#dae8fc;strokeColor=#6c8ebf;verticalAlign=top;" vertex="1" parent="92cY1rSrwsUC9bktOv2z-32">
          <mxGeometry width="258" height="216" as="geometry" />
        </mxCell>
        <mxCell id="92cY1rSrwsUC9bktOv2z-28" value="+ idleConnections: List&amp;lt;PooledConnection&amp;gt;" style="text;strokeColor=none;fillColor=none;align=left;verticalAlign=top;spacingLeft=4;spacingRight=4;overflow=hidden;rotatable=0;points=[[0,0.5],[1,0.5]];portConstraint=eastwest;whiteSpace=wrap;html=1;" vertex="1" parent="92cY1rSrwsUC9bktOv2z-32">
          <mxGeometry x="3" y="37" width="256" height="28" as="geometry" />
        </mxCell>
        <mxCell id="92cY1rSrwsUC9bktOv2z-31" value="+ activeConnections: List&amp;lt;PooledConnection&amp;gt;" style="text;strokeColor=none;fillColor=none;align=left;verticalAlign=top;spacingLeft=4;spacingRight=4;overflow=hidden;rotatable=0;points=[[0,0.5],[1,0.5]];portConstraint=eastwest;whiteSpace=wrap;html=1;" vertex="1" parent="92cY1rSrwsUC9bktOv2z-32">
          <mxGeometry x="2" y="62" width="256" height="28" as="geometry" />
        </mxCell>
        <mxCell id="92cY1rSrwsUC9bktOv2z-33" value="&lt;span style=&quot;text-align: left;&quot;&gt;activeConnections.add&lt;/span&gt;" style="whiteSpace=wrap;html=1;rounded=1;" vertex="1" parent="92cY1rSrwsUC9bktOv2z-32">
          <mxGeometry x="59" y="138" width="142" height="60" as="geometry" />
        </mxCell>
        <mxCell id="92cY1rSrwsUC9bktOv2z-36" style="edgeStyle=orthogonalEdgeStyle;rounded=0;orthogonalLoop=1;jettySize=auto;html=1;entryX=0;entryY=0.5;entryDx=0;entryDy=0;" edge="1" parent="1" source="92cY1rSrwsUC9bktOv2z-34" target="92cY1rSrwsUC9bktOv2z-33">
          <mxGeometry relative="1" as="geometry" />
        </mxCell>
        <mxCell id="92cY1rSrwsUC9bktOv2z-37" value="Y" style="edgeLabel;html=1;align=center;verticalAlign=middle;resizable=0;points=[];" vertex="1" connectable="0" parent="92cY1rSrwsUC9bktOv2z-36">
          <mxGeometry x="-0.694" y="-3" relative="1" as="geometry">
            <mxPoint as="offset" />
          </mxGeometry>
        </mxCell>
        <mxCell id="92cY1rSrwsUC9bktOv2z-41" value="" style="edgeStyle=orthogonalEdgeStyle;rounded=0;orthogonalLoop=1;jettySize=auto;html=1;" edge="1" parent="1" source="92cY1rSrwsUC9bktOv2z-34" target="92cY1rSrwsUC9bktOv2z-40">
          <mxGeometry relative="1" as="geometry" />
        </mxCell>
        <mxCell id="92cY1rSrwsUC9bktOv2z-46" value="N" style="edgeLabel;html=1;align=center;verticalAlign=middle;resizable=0;points=[];" vertex="1" connectable="0" parent="92cY1rSrwsUC9bktOv2z-41">
          <mxGeometry x="-0.2585" y="4" relative="1" as="geometry">
            <mxPoint as="offset" />
          </mxGeometry>
        </mxCell>
        <mxCell id="92cY1rSrwsUC9bktOv2z-34" value="&lt;div&gt;&lt;span style=&quot;background-color: initial; font-size: 15px; font-family: &amp;quot;MesloLGS NF&amp;quot;;&quot;&gt;有空闲连接&lt;/span&gt;&lt;br&gt;&lt;/div&gt;" style="strokeWidth=2;html=1;shape=mxgraph.flowchart.decision;whiteSpace=wrap;verticalAlign=middle;" vertex="1" parent="1">
          <mxGeometry x="1" y="952" width="152" height="55" as="geometry" />
        </mxCell>
        <mxCell id="92cY1rSrwsUC9bktOv2z-42" style="edgeStyle=orthogonalEdgeStyle;rounded=0;orthogonalLoop=1;jettySize=auto;html=1;entryX=0;entryY=0.5;entryDx=0;entryDy=0;exitX=1;exitY=0.5;exitDx=0;exitDy=0;exitPerimeter=0;" edge="1" parent="1" source="92cY1rSrwsUC9bktOv2z-40" target="92cY1rSrwsUC9bktOv2z-33">
          <mxGeometry relative="1" as="geometry">
            <Array as="points">
              <mxPoint x="239" y="1096" />
              <mxPoint x="239" y="860" />
            </Array>
          </mxGeometry>
        </mxCell>
        <mxCell id="92cY1rSrwsUC9bktOv2z-43" value="Y" style="edgeLabel;html=1;align=center;verticalAlign=middle;resizable=0;points=[];" vertex="1" connectable="0" parent="92cY1rSrwsUC9bktOv2z-42">
          <mxGeometry x="-0.7783" y="-1" relative="1" as="geometry">
            <mxPoint as="offset" />
          </mxGeometry>
        </mxCell>
        <mxCell id="92cY1rSrwsUC9bktOv2z-45" value="" style="edgeStyle=orthogonalEdgeStyle;rounded=0;orthogonalLoop=1;jettySize=auto;html=1;" edge="1" parent="1" source="92cY1rSrwsUC9bktOv2z-40" target="92cY1rSrwsUC9bktOv2z-44">
          <mxGeometry relative="1" as="geometry" />
        </mxCell>
        <mxCell id="92cY1rSrwsUC9bktOv2z-48" value="N" style="edgeLabel;html=1;align=center;verticalAlign=middle;resizable=0;points=[];" vertex="1" connectable="0" parent="92cY1rSrwsUC9bktOv2z-45">
          <mxGeometry x="0.03" y="-1" relative="1" as="geometry">
            <mxPoint as="offset" />
          </mxGeometry>
        </mxCell>
        <mxCell id="92cY1rSrwsUC9bktOv2z-40" value="当前活跃连接数&amp;nbsp;&lt;div&gt;&amp;lt; 最大活跃连接数&lt;/div&gt;" style="strokeWidth=2;html=1;shape=mxgraph.flowchart.decision;whiteSpace=wrap;verticalAlign=middle;" vertex="1" parent="1">
          <mxGeometry x="-5" y="1054" width="164" height="83" as="geometry" />
        </mxCell>
        <mxCell id="92cY1rSrwsUC9bktOv2z-49" style="edgeStyle=orthogonalEdgeStyle;rounded=0;orthogonalLoop=1;jettySize=auto;html=1;entryX=0;entryY=0.5;entryDx=0;entryDy=0;exitX=1;exitY=0.5;exitDx=0;exitDy=0;exitPerimeter=0;" edge="1" parent="1" source="92cY1rSrwsUC9bktOv2z-44" target="92cY1rSrwsUC9bktOv2z-33">
          <mxGeometry relative="1" as="geometry">
            <Array as="points">
              <mxPoint x="239" y="1225" />
              <mxPoint x="239" y="860" />
            </Array>
          </mxGeometry>
        </mxCell>
        <mxCell id="92cY1rSrwsUC9bktOv2z-50" value="Y" style="edgeLabel;html=1;align=center;verticalAlign=middle;resizable=0;points=[];" vertex="1" connectable="0" parent="92cY1rSrwsUC9bktOv2z-49">
          <mxGeometry x="-0.8127" y="2" relative="1" as="geometry">
            <mxPoint x="-15" y="2" as="offset" />
          </mxGeometry>
        </mxCell>
        <mxCell id="92cY1rSrwsUC9bktOv2z-44" value="能回收一个活跃连接" style="strokeWidth=2;html=1;shape=mxgraph.flowchart.decision;whiteSpace=wrap;verticalAlign=middle;" vertex="1" parent="1">
          <mxGeometry x="4" y="1191" width="146" height="67" as="geometry" />
        </mxCell>
        <mxCell id="92cY1rSrwsUC9bktOv2z-51" value="" style="group" vertex="1" connectable="0" parent="1">
          <mxGeometry x="571" y="692" width="180" height="216" as="geometry" />
        </mxCell>
        <mxCell id="92cY1rSrwsUC9bktOv2z-20" value="&lt;font face=&quot;MesloLGS NF&quot;&gt;PooledConnection&lt;/font&gt;" style="html=1;whiteSpace=wrap;fillColor=#1ba1e2;fontColor=#ffffff;strokeColor=#006EAF;verticalAlign=top;" vertex="1" parent="92cY1rSrwsUC9bktOv2z-51">
          <mxGeometry width="180" height="216" as="geometry" />
        </mxCell>
        <mxCell id="92cY1rSrwsUC9bktOv2z-22" value="&lt;font face=&quot;MesloLGS NF&quot;&gt;getProxyConnection&lt;/font&gt;" style="whiteSpace=wrap;html=1;rounded=1;" vertex="1" parent="92cY1rSrwsUC9bktOv2z-51">
          <mxGeometry x="19" y="45" width="142" height="60" as="geometry" />
        </mxCell>
        <mxCell id="92cY1rSrwsUC9bktOv2z-52" style="edgeStyle=orthogonalEdgeStyle;rounded=0;orthogonalLoop=1;jettySize=auto;html=1;exitX=1;exitY=0.5;exitDx=0;exitDy=0;entryX=0;entryY=0.5;entryDx=0;entryDy=0;" edge="1" parent="1" source="92cY1rSrwsUC9bktOv2z-33" target="92cY1rSrwsUC9bktOv2z-22">
          <mxGeometry relative="1" as="geometry">
            <Array as="points">
              <mxPoint x="549" y="860" />
              <mxPoint x="549" y="767" />
            </Array>
          </mxGeometry>
        </mxCell>
        <mxCell id="92cY1rSrwsUC9bktOv2z-53" value="" style="group;verticalAlign=middle;" vertex="1" connectable="0" parent="1">
          <mxGeometry x="813" y="757" width="180" height="74" as="geometry" />
        </mxCell>
        <mxCell id="92cY1rSrwsUC9bktOv2z-54" value="&lt;font face=&quot;MesloLGS NF&quot;&gt;InvocationHandler&lt;/font&gt;&lt;div&gt;&lt;font face=&quot;MesloLGS NF&quot;&gt;&lt;br&gt;&lt;/font&gt;&lt;/div&gt;&lt;div&gt;&lt;font face=&quot;MesloLGS NF&quot;&gt;JDK实现动态代理的接口&lt;/font&gt;&lt;/div&gt;" style="html=1;whiteSpace=wrap;fillColor=#1ba1e2;fontColor=#ffffff;strokeColor=#006EAF;verticalAlign=top;align=center;" vertex="1" parent="92cY1rSrwsUC9bktOv2z-53">
          <mxGeometry width="180" height="74" as="geometry" />
        </mxCell>
        <mxCell id="92cY1rSrwsUC9bktOv2z-56" value="" style="endArrow=block;dashed=1;endFill=0;endSize=12;html=1;rounded=0;entryX=0;entryY=0.5;entryDx=0;entryDy=0;exitX=0.999;exitY=0.47;exitDx=0;exitDy=0;exitPerimeter=0;" edge="1" parent="1" source="92cY1rSrwsUC9bktOv2z-20" target="92cY1rSrwsUC9bktOv2z-54">
          <mxGeometry width="160" relative="1" as="geometry">
            <mxPoint x="251" y="813" as="sourcePoint" />
            <mxPoint x="411" y="813" as="targetPoint" />
          </mxGeometry>
        </mxCell>
      </root>
    </mxGraphModel>
  </diagram>
  <diagram id="0CEUGPzpMBpSB4QSqEqa" name="getBean(Mapper.class)">
    <mxGraphModel dx="1962" dy="109" grid="0" gridSize="10" guides="1" tooltips="1" connect="1" arrows="1" fold="1" page="0" pageScale="1" pageWidth="827" pageHeight="1169" math="0" shadow="0">
      <root>
        <mxCell id="0" />
        <mxCell id="1" parent="0" />
        <mxCell id="TU1AOOeD4SKu7UiUuBBA-1" value="&lt;span style=&quot;box-sizing: border-box; color: rgb(51, 51, 51); font-family: &amp;quot;Open Sans&amp;quot;, &amp;quot;Clear Sans&amp;quot;, &amp;quot;Helvetica Neue&amp;quot;, Helvetica, Arial, &amp;quot;Segoe UI Emoji&amp;quot;, sans-serif; font-size: 16px; orphans: 4; white-space-collapse: preserve;&quot; class=&quot;md-plain&quot;&gt;使用了&lt;/span&gt;&lt;span style=&quot;box-sizing: border-box; color: rgb(51, 51, 51); font-family: &amp;quot;Open Sans&amp;quot;, &amp;quot;Clear Sans&amp;quot;, &amp;quot;Helvetica Neue&amp;quot;, Helvetica, Arial, &amp;quot;Segoe UI Emoji&amp;quot;, sans-serif; font-size: 16px; orphans: 4; white-space-collapse: preserve;&quot; class=&quot;md-pair-s&quot; spellcheck=&quot;false&quot;&gt;&lt;code style=&quot;box-sizing: border-box; font-family: var(--monospace); vertical-align: initial; border: 1px solid rgb(231, 234, 237); background-color: rgb(243, 244, 244); border-radius: 3px; padding: 0px 2px; font-size: 0.9em;&quot;&gt;MapperScan&lt;/code&gt;&lt;/span&gt;&lt;span style=&quot;box-sizing: border-box; color: rgb(51, 51, 51); font-family: &amp;quot;Open Sans&amp;quot;, &amp;quot;Clear Sans&amp;quot;, &amp;quot;Helvetica Neue&amp;quot;, Helvetica, Arial, &amp;quot;Segoe UI Emoji&amp;quot;, sans-serif; font-size: 16px; orphans: 4; white-space-collapse: preserve;&quot; class=&quot;md-plain&quot;&gt;注解，在使用&lt;/span&gt;&lt;span style=&quot;box-sizing: border-box; color: rgb(51, 51, 51); font-family: &amp;quot;Open Sans&amp;quot;, &amp;quot;Clear Sans&amp;quot;, &amp;quot;Helvetica Neue&amp;quot;, Helvetica, Arial, &amp;quot;Segoe UI Emoji&amp;quot;, sans-serif; font-size: 16px; orphans: 4; white-space-collapse: preserve;&quot; class=&quot;md-pair-s&quot; spellcheck=&quot;false&quot;&gt;&lt;code style=&quot;box-sizing: border-box; font-family: var(--monospace); vertical-align: initial; border: 1px solid rgb(231, 234, 237); background-color: rgb(243, 244, 244); border-radius: 3px; padding: 0px 2px; font-size: 0.9em;&quot;&gt;context.getBean&lt;/code&gt;&lt;/span&gt;&lt;span style=&quot;box-sizing: border-box; color: rgb(51, 51, 51); font-family: &amp;quot;Open Sans&amp;quot;, &amp;quot;Clear Sans&amp;quot;, &amp;quot;Helvetica Neue&amp;quot;, Helvetica, Arial, &amp;quot;Segoe UI Emoji&amp;quot;, sans-serif; font-size: 16px; orphans: 4; white-space-collapse: preserve;&quot; class=&quot;md-plain&quot;&gt;获取Mapper时，&lt;/span&gt;&lt;span style=&quot;box-sizing: border-box; color: rgb(51, 51, 51); font-family: &amp;quot;Open Sans&amp;quot;, &amp;quot;Clear Sans&amp;quot;, &amp;quot;Helvetica Neue&amp;quot;, Helvetica, Arial, &amp;quot;Segoe UI Emoji&amp;quot;, sans-serif; font-size: 16px; orphans: 4; white-space-collapse: preserve;&quot; class=&quot;md-pair-s&quot;&gt;&lt;strong style=&quot;box-sizing: border-box;&quot;&gt;Mybatis-Spring会自动为其创建一个代理对象&lt;/strong&gt;&lt;/span&gt;&lt;span style=&quot;box-sizing: border-box; color: rgb(51, 51, 51); font-family: &amp;quot;Open Sans&amp;quot;, &amp;quot;Clear Sans&amp;quot;, &amp;quot;Helvetica Neue&amp;quot;, Helvetica, Arial, &amp;quot;Segoe UI Emoji&amp;quot;, sans-serif; font-size: 16px; orphans: 4; white-space-collapse: preserve;&quot; class=&quot;md-plain&quot;&gt;，并将这个代理对象注册到IoC容器中，并且&lt;/span&gt;&lt;span style=&quot;box-sizing: border-box; color: rgb(51, 51, 51); font-family: &amp;quot;Open Sans&amp;quot;, &amp;quot;Clear Sans&amp;quot;, &amp;quot;Helvetica Neue&amp;quot;, Helvetica, Arial, &amp;quot;Segoe UI Emoji&amp;quot;, sans-serif; font-size: 16px; orphans: 4; white-space-collapse: preserve;&quot; class=&quot;md-pair-s md-expand&quot;&gt;&lt;strong style=&quot;box-sizing: border-box;&quot;&gt;&lt;span style=&quot;box-sizing: border-box;&quot; class=&quot;md-plain&quot;&gt;创建过程中需要&lt;/span&gt;&lt;span style=&quot;box-sizing: border-box;&quot; class=&quot;md-pair-s&quot; spellcheck=&quot;false&quot;&gt;&lt;code style=&quot;box-sizing: border-box; font-family: var(--monospace); vertical-align: initial; border: 1px solid rgb(231, 234, 237); background-color: rgb(243, 244, 244); border-radius: 3px; padding: 0px 2px; font-size: 0.9em;&quot;&gt;SqlSessionTemplate&lt;/code&gt;&lt;/span&gt;&lt;/strong&gt;&lt;/span&gt;" style="text;whiteSpace=wrap;html=1;strokeColor=default;strokeWidth=2;" vertex="1" parent="1">
          <mxGeometry x="23" y="1085.9999755859376" width="550" height="89" as="geometry" />
        </mxCell>
        <mxCell id="TU1AOOeD4SKu7UiUuBBA-2" value="ApplicationContext" style="html=1;whiteSpace=wrap;verticalAlign=top;fillColor=#d5e8d4;strokeColor=#82b366;" vertex="1" parent="1">
          <mxGeometry x="-28" y="1200" width="174" height="109" as="geometry" />
        </mxCell>
        <mxCell id="TU1AOOeD4SKu7UiUuBBA-3" value="getBean(XxxMapper.class)" style="html=1;whiteSpace=wrap;verticalAlign=middle;fillColor=#008a00;strokeColor=#005700;fontColor=#ffffff;" vertex="1" parent="1">
          <mxGeometry x="-19" y="1240" width="156" height="41" as="geometry" />
        </mxCell>
        <mxCell id="TU1AOOeD4SKu7UiUuBBA-4" value="DefaultListableBeanFactory" style="html=1;whiteSpace=wrap;verticalAlign=top;fillColor=#d5e8d4;strokeColor=#82b366;" vertex="1" parent="1">
          <mxGeometry x="-35" y="1342" width="194" height="196" as="geometry" />
        </mxCell>
        <mxCell id="TU1AOOeD4SKu7UiUuBBA-5" style="edgeStyle=orthogonalEdgeStyle;rounded=0;orthogonalLoop=1;jettySize=auto;html=1;" edge="1" parent="1" source="TU1AOOeD4SKu7UiUuBBA-7" target="TU1AOOeD4SKu7UiUuBBA-15">
          <mxGeometry relative="1" as="geometry">
            <mxPoint x="59.5" y="1490" as="targetPoint" />
          </mxGeometry>
        </mxCell>
        <mxCell id="TU1AOOeD4SKu7UiUuBBA-6" value="&lt;font face=&quot;MesloLGS NF&quot; style=&quot;font-size: 16px;&quot;&gt;……&lt;/font&gt;" style="edgeLabel;html=1;align=center;verticalAlign=middle;resizable=0;points=[];" vertex="1" connectable="0" parent="TU1AOOeD4SKu7UiUuBBA-5">
          <mxGeometry x="-0.0827" y="-1" relative="1" as="geometry">
            <mxPoint as="offset" />
          </mxGeometry>
        </mxCell>
        <mxCell id="TU1AOOeD4SKu7UiUuBBA-7" value="getBean()" style="html=1;whiteSpace=wrap;verticalAlign=middle;" vertex="1" parent="1">
          <mxGeometry x="13.5" y="1382" width="91" height="41" as="geometry" />
        </mxCell>
        <mxCell id="TU1AOOeD4SKu7UiUuBBA-8" style="edgeStyle=orthogonalEdgeStyle;rounded=0;orthogonalLoop=1;jettySize=auto;html=1;" edge="1" parent="1" source="TU1AOOeD4SKu7UiUuBBA-3" target="TU1AOOeD4SKu7UiUuBBA-7">
          <mxGeometry relative="1" as="geometry">
            <Array as="points">
              <mxPoint x="-54" y="1260.5" />
              <mxPoint x="-54" y="1402.5" />
            </Array>
          </mxGeometry>
        </mxCell>
        <mxCell id="TU1AOOeD4SKu7UiUuBBA-9" value="" style="group;fillColor=#d5e8d4;strokeColor=#82b366;" vertex="1" connectable="0" parent="1">
          <mxGeometry x="193" y="1198" width="194" height="169" as="geometry" />
        </mxCell>
        <mxCell id="TU1AOOeD4SKu7UiUuBBA-10" value="&lt;font face=&quot;MesloLGS NF&quot;&gt;&lt;b&gt;MapperFactoryBean&lt;/b&gt;&lt;/font&gt;" style="html=1;whiteSpace=wrap;verticalAlign=top;fillColor=#d5e8d4;strokeColor=#82b366;" vertex="1" parent="TU1AOOeD4SKu7UiUuBBA-9">
          <mxGeometry width="194" height="169" as="geometry" />
        </mxCell>
        <mxCell id="TU1AOOeD4SKu7UiUuBBA-11" style="edgeStyle=orthogonalEdgeStyle;rounded=0;orthogonalLoop=1;jettySize=auto;html=1;entryX=0.5;entryY=0;entryDx=0;entryDy=0;" edge="1" parent="TU1AOOeD4SKu7UiUuBBA-9" source="TU1AOOeD4SKu7UiUuBBA-12" target="TU1AOOeD4SKu7UiUuBBA-13">
          <mxGeometry relative="1" as="geometry" />
        </mxCell>
        <mxCell id="TU1AOOeD4SKu7UiUuBBA-12" value="getObject()" style="whiteSpace=wrap;html=1;" vertex="1" parent="TU1AOOeD4SKu7UiUuBBA-9">
          <mxGeometry x="46" y="29.591439688715948" width="102" height="39.45525291828793" as="geometry" />
        </mxCell>
        <mxCell id="TU1AOOeD4SKu7UiUuBBA-13" value="getSqlSession()" style="whiteSpace=wrap;html=1;" vertex="1" parent="TU1AOOeD4SKu7UiUuBBA-9">
          <mxGeometry x="46" y="93.08900767806237" width="102" height="39.45525291828793" as="geometry" />
        </mxCell>
        <mxCell id="TU1AOOeD4SKu7UiUuBBA-14" style="edgeStyle=orthogonalEdgeStyle;rounded=0;orthogonalLoop=1;jettySize=auto;html=1;entryX=0;entryY=0.5;entryDx=0;entryDy=0;" edge="1" parent="1" source="TU1AOOeD4SKu7UiUuBBA-15" target="TU1AOOeD4SKu7UiUuBBA-12">
          <mxGeometry relative="1" as="geometry">
            <Array as="points">
              <mxPoint x="177" y="1485" />
              <mxPoint x="177" y="1248" />
              <mxPoint x="238" y="1248" />
            </Array>
          </mxGeometry>
        </mxCell>
        <mxCell id="TU1AOOeD4SKu7UiUuBBA-15" value="doGetObjectFromFactoryBean()" style="whiteSpace=wrap;html=1;" vertex="1" parent="1">
          <mxGeometry x="-31" y="1465" width="180" height="40" as="geometry" />
        </mxCell>
        <mxCell id="TU1AOOeD4SKu7UiUuBBA-16" value="&lt;b&gt;&lt;font face=&quot;MesloLGS NF&quot;&gt;SqlSessionTemplate&lt;/font&gt;&lt;/b&gt;" style="html=1;whiteSpace=wrap;verticalAlign=top;fillColor=#d5e8d4;strokeColor=#82b366;" vertex="1" parent="1">
          <mxGeometry x="192" y="1404" width="194" height="167" as="geometry" />
        </mxCell>
        <mxCell id="TU1AOOeD4SKu7UiUuBBA-17" style="edgeStyle=orthogonalEdgeStyle;rounded=0;orthogonalLoop=1;jettySize=auto;html=1;entryX=0.5;entryY=0;entryDx=0;entryDy=0;" edge="1" parent="1" source="TU1AOOeD4SKu7UiUuBBA-18" target="TU1AOOeD4SKu7UiUuBBA-19">
          <mxGeometry relative="1" as="geometry" />
        </mxCell>
        <mxCell id="TU1AOOeD4SKu7UiUuBBA-18" value="getMapper()" style="whiteSpace=wrap;html=1;" vertex="1" parent="1">
          <mxGeometry x="238" y="1433.591439688716" width="102" height="39.45525291828793" as="geometry" />
        </mxCell>
        <mxCell id="TU1AOOeD4SKu7UiUuBBA-19" value="getConfiguration()&lt;div&gt;获取配置&lt;/div&gt;" style="whiteSpace=wrap;html=1;fillColor=#008a00;strokeColor=#005700;fontColor=#ffffff;" vertex="1" parent="1">
          <mxGeometry x="226" y="1519" width="126" height="39.46" as="geometry" />
        </mxCell>
        <mxCell id="TU1AOOeD4SKu7UiUuBBA-20" value="Configuration" style="html=1;whiteSpace=wrap;verticalAlign=top;fillColor=#d5e8d4;strokeColor=#82b366;" vertex="1" parent="1">
          <mxGeometry x="443" y="1200" width="194" height="85" as="geometry" />
        </mxCell>
        <mxCell id="TU1AOOeD4SKu7UiUuBBA-21" value="getMapper()" style="whiteSpace=wrap;html=1;" vertex="1" parent="1">
          <mxGeometry x="489" y="1227.591439688716" width="102" height="39.45525291828793" as="geometry" />
        </mxCell>
        <mxCell id="TU1AOOeD4SKu7UiUuBBA-22" style="edgeStyle=orthogonalEdgeStyle;rounded=0;orthogonalLoop=1;jettySize=auto;html=1;entryX=0;entryY=0.5;entryDx=0;entryDy=0;" edge="1" parent="1" source="TU1AOOeD4SKu7UiUuBBA-19" target="TU1AOOeD4SKu7UiUuBBA-21">
          <mxGeometry relative="1" as="geometry" />
        </mxCell>
        <mxCell id="TU1AOOeD4SKu7UiUuBBA-23" value="MapperProxyFactory" style="html=1;whiteSpace=wrap;verticalAlign=top;fillColor=#d5e8d4;strokeColor=#82b366;" vertex="1" parent="1">
          <mxGeometry x="443" y="1374" width="194" height="85" as="geometry" />
        </mxCell>
        <mxCell id="TU1AOOeD4SKu7UiUuBBA-24" value="newInstance()&lt;div&gt;创建XxxMapperProxy&lt;/div&gt;" style="whiteSpace=wrap;html=1;fillColor=#008a00;strokeColor=#005700;fontColor=#ffffff;" vertex="1" parent="1">
          <mxGeometry x="473" y="1396.77" width="134" height="39.46" as="geometry" />
        </mxCell>
        <mxCell id="TU1AOOeD4SKu7UiUuBBA-25" style="edgeStyle=orthogonalEdgeStyle;rounded=0;orthogonalLoop=1;jettySize=auto;html=1;entryX=1;entryY=0.5;entryDx=0;entryDy=0;" edge="1" parent="1" source="TU1AOOeD4SKu7UiUuBBA-21" target="TU1AOOeD4SKu7UiUuBBA-24">
          <mxGeometry relative="1" as="geometry">
            <mxPoint x="997" y="1326.4000854492188" as="targetPoint" />
            <Array as="points">
              <mxPoint x="655" y="1247" />
              <mxPoint x="655" y="1417" />
            </Array>
          </mxGeometry>
        </mxCell>
        <mxCell id="TU1AOOeD4SKu7UiUuBBA-26" style="edgeStyle=orthogonalEdgeStyle;rounded=0;orthogonalLoop=1;jettySize=auto;html=1;entryX=1;entryY=0.5;entryDx=0;entryDy=0;" edge="1" parent="1" source="TU1AOOeD4SKu7UiUuBBA-13" target="TU1AOOeD4SKu7UiUuBBA-18">
          <mxGeometry relative="1" as="geometry">
            <Array as="points">
              <mxPoint x="405" y="1311" />
              <mxPoint x="405" y="1453" />
            </Array>
          </mxGeometry>
        </mxCell>
      </root>
    </mxGraphModel>
  </diagram>
</mxfile>
